<svg xmlns="http://www.w3.org/2000/svg" width="512" height="512" viewBox="0 0 512 512"><defs>
<linearGradient id="blue" x1="0" x2="1"><stop stop-color="#1269F3"/><stop offset="1" stop-color="#39A7FF"/></linearGradient>
<linearGradient id="teal" x1="0" x2="1"><stop stop-color="#00A989"/><stop offset="1" stop-color="#25D2B2"/></linearGradient>
<linearGradient id="purple" x1="0" x2="1"><stop stop-color="#6E4BEE"/><stop offset="1" stop-color="#9B73FF"/></linearGradient>
<linearGradient id="coral" x1="0" x2="1"><stop stop-color="#FF4C83"/><stop offset="1" stop-color="#FF8B31"/></linearGradient>
<linearGradient id="navy" x1="0" y1="0" x2="1" y2="1"><stop stop-color="#061A45"/><stop offset="1" stop-color="#0C3D77"/></linearGradient>
<radialGradient id="glow"><stop stop-color="#20D4FF" stop-opacity=".55"/><stop offset="1" stop-color="#20D4FF" stop-opacity="0"/></radialGradient>
<filter id="shadow" x="-50%" y="-50%" width="200%" height="200%"><feDropShadow dx="0" dy="10" stdDeviation="14" flood-color="#0D2B5B" flood-opacity=".14"/></filter>
<filter id="deepShadow" x="-50%" y="-50%" width="200%" height="200%"><feDropShadow dx="0" dy="20" stdDeviation="24" flood-color="#04132F" flood-opacity=".25"/></filter>
</defs>
<g filter="url(#shadow)">
<rect x="18" y="18" width="476" height="476" rx="34" fill="#fff"/>
<text x="48" y="69" font-family="Inter,Arial" font-size="27" font-weight="700" fill="#071B49">Prompt Quality</text>
<g transform="translate(42,108)">
<circle cx="92" cy="102" r="62" fill="none" stroke="#E7EEF8" stroke-width="18"/>
<circle cx="92" cy="102" r="62" fill="none" stroke="#1269F3" stroke-width="18" stroke-linecap="round"
        stroke-dasharray="339 390" transform="rotate(-90 92 102)"/>
<text x="92" y="116" text-anchor="middle" font-family="Inter,Arial" font-size="38" font-weight="800" fill="#071B49">87%</text>
</g>
<g transform="translate(215,115)" font-family="Inter,Arial">
<text x="0" y="30" font-size="18" fill="#33415E">Relevance</text><rect x="125" y="14" width="150" height="18" rx="9" fill="#E7EEF8"/><rect x="125" y="14" width="136" height="18" rx="9" fill="#1269F3"/><text x="290" y="30" font-size="16" fill="#33415E">0.91</text>
<text x="0" y="94" font-size="18" fill="#33415E">Clarity</text><rect x="125" y="78" width="150" height="18" rx="9" fill="#E7EEF8"/><rect x="125" y="78" width="129" height="18" rx="9" fill="#2B89F4"/><text x="290" y="94" font-size="16" fill="#33415E">0.86</text>
<text x="0" y="158" font-size="18" fill="#33415E">Completeness</text><rect x="125" y="142" width="150" height="18" rx="9" fill="#E7EEF8"/><rect x="125" y="142" width="121" height="18" rx="9" fill="#0ABF9A"/><text x="290" y="158" font-size="16" fill="#33415E">0.81</text>
</g>
</g></svg>