<svg xmlns="http://www.w3.org/2000/svg" width="1200" height="800" viewBox="0 0 1200 800">
<defs>
<linearGradient id="blue" x1="0" x2="1"><stop stop-color="#1269F3"/><stop offset="1" stop-color="#39A7FF"/></linearGradient>
<linearGradient id="teal" x1="0" x2="1"><stop stop-color="#00A989"/><stop offset="1" stop-color="#25D2B2"/></linearGradient>
<linearGradient id="purple" x1="0" x2="1"><stop stop-color="#6E4BEE"/><stop offset="1" stop-color="#9B73FF"/></linearGradient>
<linearGradient id="coral" x1="0" x2="1"><stop stop-color="#FF4C83"/><stop offset="1" stop-color="#FF8B31"/></linearGradient>
<linearGradient id="navy" x1="0" y1="0" x2="1" y2="1"><stop stop-color="#061A45"/><stop offset="1" stop-color="#0C3D77"/></linearGradient>
<radialGradient id="glow"><stop stop-color="#20D4FF" stop-opacity=".55"/><stop offset="1" stop-color="#20D4FF" stop-opacity="0"/></radialGradient>
<filter id="shadow" x="-50%" y="-50%" width="200%" height="200%"><feDropShadow dx="0" dy="10" stdDeviation="14" flood-color="#0D2B5B" flood-opacity=".14"/></filter>
<filter id="deepShadow" x="-50%" y="-50%" width="200%" height="200%"><feDropShadow dx="0" dy="20" stdDeviation="24" flood-color="#04132F" flood-opacity=".25"/></filter>
</defs>
<g transform="translate(70,55) rotate(-5 530 340)" filter="url(#shadow)">
<rect x="20" y="20" width="980" height="620" rx="22" fill="#FFFDF7" stroke="#092A63" stroke-width="8"/>
<rect x="42" y="42" width="936" height="576" rx="14" fill="none" stroke="#D1B377" stroke-width="3"/>
<path d="M42 42 H165 L122 85 H42 Z M978 42 H855 L898 85 H978 Z" fill="#0A2A62"/>
<text x="510" y="120" text-anchor="middle" font-family="Inter,Arial" font-size="42" font-weight="700" fill="#1474E8">CareerSense</text>
<text x="510" y="192" text-anchor="middle" font-family="Georgia,serif" font-size="52" font-weight="700" fill="#081C47">AI Fellowship</text>
<text x="510" y="245" text-anchor="middle" font-family="Inter,Arial" font-size="26" fill="#4B556A">CERTIFICATE OF COMPLETION</text>
<line x1="230" y1="275" x2="790" y2="275" stroke="#D7C293" stroke-width="2"/>
<text x="510" y="333" text-anchor="middle" font-family="Inter,Arial" font-size="24" fill="#53607A">This certifies successful completion of the</text>
<text x="510" y="374" text-anchor="middle" font-family="Inter,Arial" font-size="28" font-weight="650" fill="#102B5C">CareerSense Artificial Intelligence Fellowship</text>
<text x="510" y="428" text-anchor="middle" font-family="Inter,Arial" font-size="21" fill="#6B7280">AI Foundations • Prompting • LLM Apps • Agents • Evaluation</text>
<text x="190" y="548" font-family="Georgia,serif" font-size="34" font-style="italic" fill="#22345E">CareerSense</text>
<line x1="170" y1="568" x2="390" y2="568" stroke="#A7AFC0"/>
<text x="735" y="548" font-family="Georgia,serif" font-size="34" font-style="italic" fill="#22345E">Verified</text>
<line x1="715" y1="568" x2="895" y2="568" stroke="#A7AFC0"/>
<circle cx="510" cy="525" r="48" fill="#0B2A63"/><path d="M490 525 l16 17 29-35" fill="none" stroke="#25C3A6" stroke-width="9" stroke-linecap="round"/>
</g></svg>