<svg xmlns="http://www.w3.org/2000/svg" width="1024" height="1024" viewBox="0 0 1024 1024">

<defs>
  <linearGradient id="blueGrad" x1="0" y1="0" x2="1" y2="1">
    <stop offset="0%" stop-color="#2F80ED"/>
    <stop offset="100%" stop-color="#4EA5FF"/>
  </linearGradient>
  <linearGradient id="tealGrad" x1="0" y1="0" x2="1" y2="1">
    <stop offset="0%" stop-color="#11A98D"/>
    <stop offset="100%" stop-color="#35D3BA"/>
  </linearGradient>
  <linearGradient id="purpleGrad" x1="0" y1="0" x2="1" y2="1">
    <stop offset="0%" stop-color="#6654E8"/>
    <stop offset="100%" stop-color="#9A7CFF"/>
  </linearGradient>
  <filter id="cardShadow" x="-20%" y="-20%" width="140%" height="140%">
    <feDropShadow dx="0" dy="16" stdDeviation="20" flood-color="#102A56" flood-opacity=".12"/>
  </filter>
</defs>

<g filter="url(#cardShadow)">
  <rect x="32" y="32" width="960" height="960" rx="64" fill="#F8FAFD"/>
</g>
<rect x="64" y="64" width="896" height="896" rx="44" fill="#FFFFFF" opacity=".72"/>
<text x="88" y="122" font-family="Inter,Arial,sans-serif" font-size="48" font-weight="800" fill="#0B2454">Design System</text>


<rect x="92" y="220" width="270" height="300" rx="32" fill="#F8FAFD" stroke="#E5EBF2" stroke-width="2"/>
<text x="227" y="346" text-anchor="middle" font-family="Georgia,serif" font-size="92" font-weight="700" fill="#0B2454">Aa</text>
<rect x="135" y="400" width="184" height="16" rx="8" fill="#BCC8D8"/>
<rect x="135" y="438" width="135" height="16" rx="8" fill="#D4DCE7"/>

<rect x="420" y="258" width="100" height="100" rx="24" fill="#755CEE"/>
<rect x="540" y="258" width="100" height="100" rx="24" fill="#F15B8E"/>
<rect x="660" y="258" width="100" height="100" rx="24" fill="#FF8CAE"/>
<rect x="780" y="258" width="100" height="100" rx="24" fill="#2CC2A9"/>

<rect x="420" y="462" width="250" height="92" rx="24" fill="#F1EDFF"/>
<rect x="455" y="492" width="180" height="32" rx="16" fill="url(#purpleGrad)"/>
<rect x="720" y="475" width="170" height="66" rx="33" fill="#E8EDF4"/>
<circle cx="855" cy="508" r="27" fill="#fff" stroke="#B6C1D1" stroke-width="3"/>

<rect x="92" y="600" width="798" height="180" rx="34" fill="#F8FAFD" stroke="#E8EDF4" stroke-width="2"/>
</svg>