<svg xmlns="http://www.w3.org/2000/svg" width="512" height="512" viewBox="0 0 512 512"><defs>
<linearGradient id="blue" x1="0" x2="1"><stop stop-color="#1474E8"/><stop offset="1" stop-color="#287CF4"/></linearGradient>
<linearGradient id="teal" x1="0" x2="1"><stop stop-color="#08A88D"/><stop offset="1" stop-color="#21D0B0"/></linearGradient>
<linearGradient id="purple" x1="0" x2="1"><stop stop-color="#654CF0"/><stop offset="1" stop-color="#9B76FF"/></linearGradient>
<linearGradient id="pink" x1="0" x2="1"><stop stop-color="#FF5C86"/><stop offset="1" stop-color="#FF9AB2"/></linearGradient>
<linearGradient id="navy" x1="0" y1="0" x2="1" y2="1"><stop stop-color="#061947"/><stop offset="1" stop-color="#0D3974"/></linearGradient>
<radialGradient id="glow"><stop stop-color="#28D4FF" stop-opacity=".52"/><stop offset="1" stop-color="#28D4FF" stop-opacity="0"/></radialGradient>
<filter id="shadow" x="-50%" y="-50%" width="200%" height="200%"><feDropShadow dx="0" dy="10" stdDeviation="14" flood-color="#0D2B5B" flood-opacity=".14"/></filter>
<filter id="deepShadow" x="-50%" y="-50%" width="200%" height="200%"><feDropShadow dx="0" dy="20" stdDeviation="24" flood-color="#04132F" flood-opacity=".25"/></filter>
</defs>
<g filter="url(#shadow)">
<rect x="18" y="18" width="476" height="476" rx="34" fill="#fff"/>
<text x="48" y="69" font-family="Inter,Arial" font-size="28" font-weight="700" fill="#071B49">Prototype</text>
<g transform="translate(55,120)">
<rect x="18" y="0" width="120" height="235" rx="22" fill="#111827"/>
<rect x="27" y="13" width="102" height="207" rx="16" fill="#F8FAFC"/>
<rect x="42" y="38" width="72" height="12" rx="6" fill="#D5DDEA"/>
<rect x="42" y="66" width="72" height="55" rx="8" fill="#E7ECF5"/>
<rect x="42" y="138" width="72" height="12" rx="6" fill="#A5B5D0"/>
<rect x="42" y="161" width="58" height="12" rx="6" fill="#D4DDEA"/>
<rect x="205" y="0" width="150" height="235" rx="22" fill="#F7F8FD" stroke="#CBD5E6" stroke-width="4"/>
<rect x="226" y="28" width="108" height="14" rx="7" fill="#CBD5E6"/>
<circle cx="280" cy="103" r="48" fill="#EDF0F7"/>
<path d="M280 103 V55 A48 48 0 0 1 318 132 Z" fill="#7E5AF2"/>
<path d="M280 103 L318 132 A48 48 0 0 1 247 139 Z" fill="#64A9F7"/>
<rect x="226" y="178" width="100" height="12" rx="6" fill="#D5DDEA"/>
<circle cx="171" cy="116" r="31" fill="#7657F1"/><path d="M161 98 L184 116 L161 134Z" fill="#fff"/>
</g>
</g></svg>